<?xml version="1.0" standalone="no"?>
<!DOCTYPE svg PUBLIC "-//W3C//DTD SVG 20010904//EN"
 "http://www.w3.org/TR/2001/REC-SVG-20010904/DTD/svg10.dtd">
<svg version="1.0" xmlns="http://www.w3.org/2000/svg"
 width="512.000000pt" height="512.000000pt" viewBox="0 0 512.000000 512.000000"
 preserveAspectRatio="xMidYMid meet">
<metadata>
Created by potrace 1.14, written by Peter Selinger 2001-2017
</metadata>
<g transform="translate(0.000000,512.000000) scale(0.100000,-0.100000)"
fill="#000000" stroke="none">
<path d="M2806 3720 c-19 -22 -50 -68 -67 -102 -35 -69 -109 -287 -109 -321 0
-12 -5 -29 -10 -37 -8 -12 -13 -11 -34 9 -20 19 -28 21 -45 12 -12 -7 -21 -16
-21 -21 0 -22 -20 -8 -25 18 -4 15 -25 83 -47 152 -61 187 -109 274 -169 306
-28 14 -32 14 -65 -7 -23 -14 -34 -27 -31 -38 2 -9 67 -111 144 -226 169 -253
157 -233 145 -248 -18 -24 -20 -59 -6 -114 15 -59 81 -193 94 -193 12 0 68 91
85 139 19 55 19 114 0 151 l-15 29 156 237 155 236 -27 29 c-38 40 -65 37
-108 -11z"/>
<path d="M1205 3439 c-85 -9 -229 -56 -327 -105 -269 -135 -491 -386 -557
-629 -19 -68 -14 -234 9 -308 78 -253 277 -495 529 -643 26 -16 45 -40 67 -86
52 -105 153 -184 298 -233 257 -86 574 -57 791 72 242 145 391 398 510 863 33
130 37 131 66 13 59 -232 137 -440 216 -577 92 -156 259 -298 424 -359 341
-127 774 -49 931 167 16 23 32 54 35 69 3 16 18 35 32 44 287 175 479 395 560
642 27 83 30 278 5 362 -78 260 -359 539 -656 649 -127 46 -207 60 -353 60
-166 0 -256 -19 -376 -79 -250 -126 -550 -425 -791 -788 -27 -40 -52 -73 -56
-73 -4 0 -20 21 -37 48 -32 51 -223 307 -271 362 -225 263 -458 439 -664 505
-94 29 -251 39 -385 24z"/>
</g>
</svg>
