<svg version="1" xmlns="http://www.w3.org/2000/svg" width="346.667" height="346.667" viewBox="0 0 260.000000 260.000000"><path d="M26 2.3c-11.8 4-20.5 13-24 24.5C0 33.4 0 35.6.2 132l.3 98.5 2.4 5.9c3.2 8.1 12.6 17.5 20.7 20.7l5.9 2.4h201l5.9-2.4c8.1-3.2 17.5-12.6 20.7-20.7l2.4-5.9v-201l-2.4-5.9c-3.2-8.1-12.6-17.5-20.7-20.7L230.5.5l-99-.2-99-.3L26 2.3zm103 27.4c4.3 11.4 5.4 18.2 5.3 32.8 0 21.2-4.6 39.5-14 55.3-4.5 7.6-13.6 17.6-15.4 17-2-.7-5.5-6.2-7.9-12.4-7.1-19.2-4.1-52.3 6.9-75.9 4.6-9.8 11.5-19.9 16.3-24l3.2-2.7 1.7 2.1c1 1.2 2.7 4.7 3.9 7.8zM43.5 80c20.6 14.2 37.5 58.7 33.6 88.4-1.2 8.8-3.7 17.6-5.1 17.6-.4 0-3.4-2-6.7-4.3-14.8-10.9-27.6-32.4-33.4-56-3.9-15.9-3.6-36 .7-46.7 1.4-3.6 1.8-3.8 4.1-2.9 1.3.5 4.4 2.3 6.8 3.9zm187.9 30.7c-10.4 45.4-53.1 90.9-102.9 109.7-11.7 4.3-25.7 7.5-39.1 8.6-6.9.6-12.9.8-13.2.5-.8-.8 3.3-14.4 6.9-23.1 18.5-44.4 67.2-84.5 115.9-95.3 12.6-2.8 13.1-2.8 23.8-3l9.2-.1-.6 2.7z"/></svg>