<svg xmlns="http://www.w3.org/2000/svg" width="67.408" height="67.404" viewBox="0 0 67.408 67.404">
  <g id="Groupe_39940" data-name="Groupe 39940" transform="translate(5327 20955.998)" style="isolation: isolate">
    <path id="Tracé_35016" data-name="Tracé 35016" d="M12.246,53.836A4.936,4.936,0,0,1,7.435,49.9L.149,13.367a4.933,4.933,0,0,1-.093-.924A4.915,4.915,0,0,1,4.94,7.5H23.06a4.935,4.935,0,0,1,4.811,3.932l.781,3.915a.71.71,0,0,0,.685.551H62.556a4.916,4.916,0,0,1,4.814,5.865v.006c-1.365,6.839-4.455,22.349-5.6,28.124a4.943,4.943,0,0,1-4.811,3.943ZM4.957,11.71a.691.691,0,0,0-.486.208.695.695,0,0,0-.188.629l7.283,36.522a.707.707,0,0,0,.685.551h44.7a.71.71,0,0,0,.683-.562c1.146-5.766,4.236-21.276,5.6-28.115a.708.708,0,0,0-.691-.834H29.332a4.935,4.935,0,0,1-4.811-3.932l-.781-3.915a.7.7,0,0,0-.683-.551Z" transform="translate(-5327.057 -20942.43)"/>
    <path id="Tracé_35017" data-name="Tracé 35017" d="M48.052,25.275a2.109,2.109,0,0,1-2.107-2.1L45.887,4.92a.7.7,0,0,0-.7-.708H8.777a.7.7,0,0,0-.7.7l-.056,9.842a2.107,2.107,0,0,1-4.213-.022L3.862,4.9A4.917,4.917,0,0,1,8.777,0H45.184A4.921,4.921,0,0,1,50.1,4.914l.059,18.251a2.1,2.1,0,0,1-2.1,2.112h-.006Z" transform="translate(-5320.273 -20955.996)"/>
    <path id="Tracé_35018" data-name="Tracé 35018" d="M8.922,7.2a2.107,2.107,0,0,1,0-4.213l23.141.022a2.107,2.107,0,0,1,0,4.213Z" transform="translate(-5314.826 -20950.586)"/>
    <path id="Tracé_35019" data-name="Tracé 35019" d="M13.413,10.211a2.107,2.107,0,1,1,0-4.213H23.945a2.107,2.107,0,1,1,0,4.213Z" transform="translate(-5306.708 -20945.146)"/>
  </g>
</svg>
