<svg xmlns="http://www.w3.org/2000/svg" width="68.447" height="68.445" viewBox="0 0 68.447 68.445">
  <g id="Groupe_39938" data-name="Groupe 39938" transform="translate(-211.777 -1091.801)" style="isolation: isolate">
    <g id="flying-insect-bee-1" transform="translate(213.777 1074.299)">
      <g id="team-exchange-chat" transform="translate(10.001 29.502)">
        <g id="team-exchange-chat-2" data-name="team-exchange-chat" transform="translate(-12 -12)">
          <path id="Tracé_34865" data-name="Tracé 34865" d="M27.806,32.085a2.149,2.149,0,0,1-1.283-.428l-7.985-5.989H6.417A6.425,6.425,0,0,1,0,19.251V6.418A6.423,6.423,0,0,1,6.417,0H32.084A6.423,6.423,0,0,1,38.5,6.418V19.251a6.423,6.423,0,0,1-6.417,6.417H29.945v4.278a2.13,2.13,0,0,1-1.181,1.914A2.208,2.208,0,0,1,27.806,32.085ZM6.417,4.279A2.14,2.14,0,0,0,4.278,6.418V19.251A2.14,2.14,0,0,0,6.417,21.39H19.25a2.149,2.149,0,0,1,1.283.428l5.133,3.85V23.529a2.14,2.14,0,0,1,2.139-2.139h4.278a2.14,2.14,0,0,0,2.139-2.139V6.418a2.14,2.14,0,0,0-2.139-2.139H6.417Z" transform="translate(0 -0.001)"/>
          <path id="Tracé_34866" data-name="Tracé 34866" d="M21.195,44.835a2.18,2.18,0,0,1-.958-.225A2.13,2.13,0,0,1,19.056,42.7V38.418H16.917A6.423,6.423,0,0,1,10.5,32V19.168a6.423,6.423,0,0,1,6.417-6.417H42.584A6.423,6.423,0,0,1,49,19.168V32a6.423,6.423,0,0,1-6.417,6.417H30.463l-7.985,5.989A2.149,2.149,0,0,1,21.195,44.835ZM16.917,17.029a2.14,2.14,0,0,0-2.139,2.139V32a2.14,2.14,0,0,0,2.139,2.139h4.278a2.14,2.14,0,0,1,2.139,2.139v2.139l5.133-3.85a2.149,2.149,0,0,1,1.283-.428H42.584A2.14,2.14,0,0,0,44.723,32V19.168a2.14,2.14,0,0,0-2.139-2.139Z" transform="translate(19.445 23.61)"/>
          <path id="Tracé_34867" data-name="Tracé 34867" d="M11.224,32.751a9.625,9.625,0,1,1,9.625-9.625A9.636,9.636,0,0,1,11.224,32.751Zm0-14.972a5.347,5.347,0,1,0,5.347,5.347A5.353,5.353,0,0,0,11.224,17.779Z" transform="translate(2.961 24.999)"/>
          <path id="Tracé_34868" data-name="Tracé 34868" d="M26.234,32.336A2.142,2.142,0,0,1,24.215,30.9a10.619,10.619,0,0,0-20.054,0,2.14,2.14,0,0,1-2.726,1.315A2.142,2.142,0,0,1,.122,29.493a14.9,14.9,0,0,1,28.134,0,2.139,2.139,0,0,1-1.318,2.724A2.089,2.089,0,0,1,26.234,32.336Z" transform="translate(0.003 36.109)"/>
          <path id="Tracé_34869" data-name="Tracé 34869" d="M25.275,20A9.625,9.625,0,1,1,34.9,10.376,9.636,9.636,0,0,1,25.275,20Zm0-14.972a5.347,5.347,0,1,0,5.347,5.347A5.353,5.353,0,0,0,25.275,5.029Z" transform="translate(28.982 1.388)"/>
          <path id="Tracé_34870" data-name="Tracé 34870" d="M16.192,19.588a2.139,2.139,0,0,1-2.019-2.846,14.9,14.9,0,0,1,28.134,0,2.137,2.137,0,1,1-4.035,1.409A10.651,10.651,0,0,0,28.227,11.03a10.624,10.624,0,0,0-10.016,7.124A2.142,2.142,0,0,1,16.192,19.588Z" transform="translate(26.019 12.495)"/>
          <path id="Tracé_34871" data-name="Tracé 34871" d="M28.472,27.838a2.118,2.118,0,0,1-1.511-.627,2.145,2.145,0,0,1,0-3.026l.627-.627H15.639a2.139,2.139,0,1,1,0-4.278H27.585l-.627-.627a2.145,2.145,0,0,1,0-3.026,2.134,2.134,0,0,1,3.023,0L34.259,19.9a2.111,2.111,0,0,1,.465.7c.009.023.02.048.029.074a2.125,2.125,0,0,1,.137.744,2.188,2.188,0,0,1-.131.736l-.017.048a2.134,2.134,0,0,1-.476.73l-4.278,4.278A2.144,2.144,0,0,1,28.472,27.838Z" transform="translate(25 27.773)"/>
          <path id="Tracé_34872" data-name="Tracé 34872" d="M9.417,15.086a2.118,2.118,0,0,1-1.511-.627L3.627,10.181a2.111,2.111,0,0,1-.465-.7.531.531,0,0,1-.029-.071A2.112,2.112,0,0,1,3,8.67a2.146,2.146,0,0,1,.134-.744c.009-.023.014-.043.023-.06a2.188,2.188,0,0,1,.471-.713L7.9,2.877A2.14,2.14,0,1,1,10.928,5.9l-.627.627H22.25a2.139,2.139,0,1,1,0,4.278H10.3l.627.627a2.139,2.139,0,0,1-1.511,3.65Z" transform="translate(5.556 4.164)"/>
        </g>
      </g>
    </g>
  </g>
</svg>
