<svg xmlns="http://www.w3.org/2000/svg" width="61.84" height="70.535" viewBox="0 0 61.84 70.535">
  <g id="Groupe_39941" data-name="Groupe 39941" transform="translate(5721.92 20658.035)">
    <path id="Tracé_35030" data-name="Tracé 35030" d="M31.92,69.535a10.833,10.833,0,0,1-3.9-.724L25,67.651A36.888,36.888,0,0,1,1.5,33.427V11.368A6.487,6.487,0,0,1,5.284,5.447,64.62,64.62,0,0,1,31.306,0l.634,0,.539,0A64.7,64.7,0,0,1,58.522,5.432a6.508,6.508,0,0,1,3.818,5.951V33.427a36.888,36.888,0,0,1-23.5,34.224L35.82,68.81A10.833,10.833,0,0,1,31.92,69.535ZM31.341,4.346A60.374,60.374,0,0,0,7.057,9.413a2.12,2.12,0,0,0-1.211,1.941V33.427A32.516,32.516,0,0,0,26.563,63.6l3.016,1.159a6.5,6.5,0,0,0,4.682,0L37.277,63.6A32.526,32.526,0,0,0,57.995,33.427V11.368A2.15,2.15,0,0,0,56.749,9.4,60.282,60.282,0,0,0,32.482,4.346l-.542,0Z" transform="translate(-5722.92 -20657.535)"/>
    <path id="Tracé_35031" data-name="Tracé 35031" d="M8.95,11.2a2.8,2.8,0,0,1-.732-.1l-.012,0A2.8,2.8,0,0,1,6.238,7.68a.159.159,0,0,1,0-.017,1.911,1.911,0,0,1,.067-.194l.032-.08A2.794,2.794,0,0,1,9.356,5.633a1.9,1.9,0,0,1,.257.042l.065.015a1.733,1.733,0,0,1,.314.115A2.805,2.805,0,0,1,11.71,8.813c-.007.055-.017.112-.027.169,0,.032-.015.087-.03.144,0,0,0,0,0,.01A2.807,2.807,0,0,1,8.95,11.2Z" transform="translate(-5704.125 -20635.385)"/>
    <path id="Tracé_35032" data-name="Tracé 35032" d="M13.673,15.31A1.869,1.869,0,0,1,12.278,12.2C14,10.272,16.31,6.646,15.817,4.983c-.052-.172-.207-.692-1.492-1.043a4.859,4.859,0,0,0-1.25-.189,1.808,1.808,0,0,0-1.245.406c-1.293,1.111-1.375,4.385-1.213,5.8a1.867,1.867,0,0,1-1.641,2.069c-.075.007-.144.012-.212.012h0a1.869,1.869,0,0,1-1.858-1.654c-.075-.645-.635-6.375,2.488-9.059A5.479,5.479,0,0,1,13.068.015a8.594,8.594,0,0,1,2.241.324A5.324,5.324,0,0,1,19.4,3.927c1.253,4.228-3.392,9.707-4.336,10.763A1.885,1.885,0,0,1,13.673,15.31Z" transform="translate(-5703.118 -20643.711)"/>
    <path id="Tracé_35033" data-name="Tracé 35033" d="M8.341,15.61c-3.2,0-5.5-.732-6.844-2.171A5.318,5.318,0,0,1,.481,8.089a6.127,6.127,0,0,1,3.845-4.6,5.969,5.969,0,0,1,1.935-.306c3.394,0,6.764,2.473,7.138,2.754a1.867,1.867,0,0,1-2.246,2.983,10.059,10.059,0,0,0-4.879-2,2.328,2.328,0,0,0-.742.11c-.244.085-.984.336-1.449,2.042-.349,1.287.022,1.686.144,1.818.575.615,2.072.969,4.109.969a21.685,21.685,0,0,0,3.9-.361,1.845,1.845,0,0,1,.366-.037,1.868,1.868,0,0,1,.366,3.7A25.492,25.492,0,0,1,8.341,15.61Z" transform="translate(-5712.982 -20638.986)"/>
    <path id="Tracé_35034" data-name="Tracé 35034" d="M2.2,4.4A2.195,2.195,0,0,1,.158,3.025c-.006-.014-.025-.07-.031-.084A.712.712,0,0,1,.1,2.865,2.181,2.181,0,0,1,1.27.211c.037-.02.072-.037.11-.053a2.191,2.191,0,0,1,2.744.987,1.5,1.5,0,0,1,.118.231A2.2,2.2,0,0,1,3.056,4.232l-.043.018a1.036,1.036,0,0,1-.131.041l-.055.016A2.134,2.134,0,0,1,2.2,4.4Z" transform="matrix(0.921, -0.391, 0.391, 0.921, -5687.445, -20609.637)"/>
    <path id="Tracé_34958_-_Contour" data-name="Tracé 34958 - Contour" d="M2.637,5.273h0A2.629,2.629,0,0,1,.189,3.623s-.012-.03-.022-.058L.148,3.513c-.01-.031-.021-.065-.029-.1A2.615,2.615,0,0,1,1.51.257C1.556.233,1.6.212,1.645.193A2.626,2.626,0,0,1,4.933,1.361a1.951,1.951,0,0,1,.145.287A2.633,2.633,0,0,1,3.659,5.067h0l-.05.021a1.442,1.442,0,0,1-.179.057l-.054.015A2.525,2.525,0,0,1,2.637,5.273ZM.97,3.23l.015.04.01.027A1.764,1.764,0,0,0,2.637,4.4v0a1.7,1.7,0,0,0,.5-.079L3.211,4.3a.6.6,0,0,0,.075-.023l.036-.015a1.764,1.764,0,0,0,.95-2.291,1.069,1.069,0,0,0-.084-.165l-.012-.02A1.757,1.757,0,0,0,1.974,1c-.018.008-.042.02-.068.034l-.019.009A1.746,1.746,0,0,0,.953,3.167l.011.041A.213.213,0,0,0,.97,3.23Z" transform="matrix(0.921, -0.391, 0.391, 0.921, -5688.014, -20609.867)"/>
    <path id="Tracé_35035" data-name="Tracé 35035" d="M3.087,10.051c-.729,0-1.267-.037-1.465-.053a1.469,1.469,0,0,1,.115-2.933c.041,0,.082,0,.125.006.325.025.734.041,1.152.041,2.552,0,4.489-.477,5.055-1.245.082-.114.337-.458-.055-1.431-.519-1.29-1.122-1.422-1.32-1.465a1.646,1.646,0,0,0-.335-.033c-1.275,0-3.055,1.243-3.88,2.026A1.468,1.468,0,0,1,.452,2.839C.756,2.549,3.5,0,6.368,0a4.527,4.527,0,0,1,.944.1,4.818,4.818,0,0,1,3.426,3.241,4.186,4.186,0,0,1-.305,4.269C8.947,9.627,5.617,10.051,3.087,10.051Z" transform="matrix(0.921, -0.391, 0.391, 0.921, -5684.557, -20618.531)"/>
    <path id="Tracé_34959_-_Contour" data-name="Tracé 34959 - Contour" d="M3.524,10.92h0c-.709,0-1.244-.034-1.5-.054a1.9,1.9,0,0,1,.149-3.8c.054,0,.108,0,.165.008.322.025.719.039,1.112.039,2.707,0,4.313-.536,4.705-1.068.159-.219.029-.671-.108-1.011-.287-.715-.627-1.119-1.009-1.2a1.211,1.211,0,0,0-.242-.023c-1.085,0-2.747,1.115-3.58,1.907A1.9,1.9,0,0,1,.586,2.959C.9,2.656,3.773,0,6.8,0A4.95,4.95,0,0,1,7.838.108a5.227,5.227,0,0,1,3.738,3.5A4.6,4.6,0,0,1,11.218,8.3C9.624,10.465,6.154,10.92,3.524,10.92ZM2.172,7.934A1.034,1.034,0,0,0,2.093,10c.194.015.725.051,1.429.052l0,.435v-.435c2.429,0,5.615-.393,6.994-2.266a3.772,3.772,0,0,0,.252-3.849A4.411,4.411,0,0,0,7.656.957,4.077,4.077,0,0,0,6.8.869c-2.691,0-5.325,2.44-5.616,2.718a1.034,1.034,0,0,0,1.428,1.5c.908-.863,2.771-2.146,4.179-2.146a2.086,2.086,0,0,1,.423.042c.258.056,1.03.224,1.635,1.728a1.86,1.86,0,0,1,0,1.847c-.66.895-2.679,1.426-5.406,1.426-.417,0-.838-.015-1.188-.043C2.229,7.935,2.2,7.934,2.172,7.934Z" transform="matrix(0.921, -0.391, 0.391, 0.921, -5685.127, -20618.762)"/>
    <path id="Tracé_35036" data-name="Tracé 35036" d="M5.4,12.047a1.464,1.464,0,0,1-.973-.37C3.6,10.938-.533,7.086.058,3.669A4.187,4.187,0,0,1,2.929.491,6.23,6.23,0,0,1,5.242,0a4.2,4.2,0,0,1,2.4.723c2.683,1.81,2.772,6.337,2.774,6.848a1.469,1.469,0,0,1-2.938.006C7.471,6.456,7.1,3.9,6,3.155a1.322,1.322,0,0,0-.764-.217,3.323,3.323,0,0,0-1.206.28c-.975.392-1.048.814-1.071.952C2.721,5.514,4.86,8.132,6.378,9.48A1.468,1.468,0,0,1,5.4,12.047Z" transform="matrix(0.921, -0.391, 0.391, 0.921, -5697.979, -20620.121)"/>
    <path id="Tracé_34960_-_Contour" data-name="Tracé 34960 - Contour" d="M5.837,12.913h0a1.9,1.9,0,0,1-1.263-.48C3.362,11.357-.548,7.572.065,4.027A4.6,4.6,0,0,1,3.2.52,5.288,5.288,0,0,1,8.318.795C11.18,2.725,11.281,7.467,11.283,8a1.9,1.9,0,0,1-3.807.008c0-1.117-.386-3.455-1.287-4.062A.889.889,0,0,0,5.667,3.8a2.941,2.941,0,0,0-1.044.248c-.281.113-.758.343-.806.622C3.641,5.694,5.407,8.082,7.1,9.586a1.9,1.9,0,0,1-1.265,3.327ZM5.677.866a5.8,5.8,0,0,0-2.151.46,3.778,3.778,0,0,0-2.6,2.849c-.55,3.182,3.427,6.9,4.231,7.608a1.029,1.029,0,0,0,.685.261v0a1.043,1.043,0,0,0,.776-.348,1.036,1.036,0,0,0-.088-1.459C5.5,9.328,2.65,6.328,2.962,4.526c.092-.537.529-.956,1.338-1.281a2.474,2.474,0,0,1,2.375-.019c1.353.91,1.667,3.829,1.67,4.78a1.034,1.034,0,0,0,2.069,0c0-.486-.091-4.807-2.582-6.488A3.774,3.774,0,0,0,5.677.866Z" transform="matrix(0.921, -0.391, 0.391, 0.921, -5698.549, -20620.348)"/>
    <path id="Union_3_-_Contour" data-name="Union 3 - Contour" d="M30.421,70.035a11.357,11.357,0,0,1-4.08-.758l-3.017-1.158A37.4,37.4,0,0,1-.5,33.427V11.368A6.976,6.976,0,0,1,3.576,4.992l.008,0A65.136,65.136,0,0,1,29.806-.5l.636,0,.535,0A65.212,65.212,0,0,1,57.222,4.973l.008,0a7.016,7.016,0,0,1,4.109,6.411v22.04A37.4,37.4,0,0,1,37.516,68.119L34.5,69.277A11.35,11.35,0,0,1,30.421,70.035ZM3.988,5.9A5.976,5.976,0,0,0,.5,11.365V33.427A36.39,36.39,0,0,0,23.683,67.186L26.7,68.343a10.351,10.351,0,0,0,7.441,0l3.017-1.158A36.39,36.39,0,0,0,60.339,33.427V11.384a6.015,6.015,0,0,0-3.521-5.5A64.217,64.217,0,0,0,30.979.5l-.537,0L29.8.5A64.142,64.142,0,0,0,3.988,5.9ZM30.421,65.691a6.953,6.953,0,0,1-2.522-.472l-3.015-1.157A33.019,33.019,0,0,1,3.847,33.427V11.353a2.6,2.6,0,0,1,1.5-2.394l.009,0A60.874,60.874,0,0,1,29.84,3.847h0l.6,0,.538,0a60.781,60.781,0,0,1,24.47,5.092l.01,0A2.66,2.66,0,0,1,57,11.371V33.427A33.032,33.032,0,0,1,35.956,64.065l-3.017,1.16A7.031,7.031,0,0,1,30.421,65.691ZM5.761,9.869a1.626,1.626,0,0,0-.914,1.479V33.427a32.013,32.013,0,0,0,20.4,29.7l3.016,1.158a5.959,5.959,0,0,0,2.162.4,6.034,6.034,0,0,0,2.16-.4l3.016-1.16A32.026,32.026,0,0,0,56,33.427V11.368a1.659,1.659,0,0,0-.952-1.515A59.786,59.786,0,0,0,30.982,4.847l-.54,0-.6,0A59.876,59.876,0,0,0,5.761,9.869ZM36.857,52.2h0a3.115,3.115,0,0,1-2.216-.922s-.024-.024-.051-.053l-.05-.05-.017-.022-.059-.073a3.164,3.164,0,0,1-.741-2.018,3.128,3.128,0,0,1,.8-2.082l.009-.01c.033-.039.065-.075.1-.112l.015-.015a3.163,3.163,0,0,1,.984-.665,3.139,3.139,0,0,1,3.15.411,2.375,2.375,0,0,1,.3.256,3.129,3.129,0,0,1,.037,4.4l-.045.045a1.9,1.9,0,0,1-.181.157l-.025.022-.013.011a3.083,3.083,0,0,1-.76.466A3.141,3.141,0,0,1,36.857,52.2Zm-1.57-1.693.04.041.022.023a2.121,2.121,0,0,0,1.508.628,2.146,2.146,0,0,0,.842-.172,2.052,2.052,0,0,0,.506-.311l.041-.036.022-.018a.939.939,0,0,0,.093-.078l.036-.036a2.129,2.129,0,0,0-.027-2.994,1.389,1.389,0,0,0-.182-.156l-.02-.015a2.127,2.127,0,0,0-2.816.163c-.023.025-.045.051-.069.078l-.017.019a2.128,2.128,0,0,0-.546,1.417,2.161,2.161,0,0,0,.508,1.378l0,.005ZM41.8,48.582v0a2.4,2.4,0,0,1-1.594-4.2,2.408,2.408,0,0,1-.471.046,2.382,2.382,0,0,1-.954-.2,2.41,2.41,0,0,1-1.254-3.157c.3-.69,1.941-4.188,4.829-5.415a5.526,5.526,0,0,1,1.1-.336,5.281,5.281,0,0,1,.993-.1,6,6,0,0,1,4.268,2,5.073,5.073,0,0,1,1.634,4.925c-.668,2.815-3.822,4.688-6.351,5.763l-.1.04c-.621.26-1.1.429-1.343.509A2.393,2.393,0,0,1,41.8,48.582Zm2.6-9.545a2.4,2.4,0,0,1,1.614.872c.513.513.719.956.629,1.353v.005c-.227.95-1.838,2.163-4.205,3.165-.387.164-.768.311-1.075.413-.039.013-.084.028-.121.044a1.4,1.4,0,0,0,1,2.621c.236-.079.728-.251,1.363-.52l.1-.04c4.122-1.773,5.362-3.714,5.676-5.034a4.242,4.242,0,0,0-1.369-3.988,5.043,5.043,0,0,0-3.56-1.7,4.274,4.274,0,0,0-.8.078,4.519,4.519,0,0,0-.9.274c-2.592,1.1-4.135,4.507-4.3,4.891a1.408,1.408,0,0,0,.734,1.843,1.407,1.407,0,0,0,1.1,0,1.4,1.4,0,0,0,.738-.735c.459-1.053,1.628-2.911,2.816-3.416a1.73,1.73,0,0,1,.323-.1l.011,0A1.241,1.241,0,0,1,44.4,39.037Zm-.04,1a.741.741,0,0,0-.131.041,6.462,6.462,0,0,0-2.293,2.9,2.4,2.4,0,0,1-.569.805c.211-.078.443-.171.679-.271,2.643-1.12,3.49-2.122,3.611-2.441a1.572,1.572,0,0,0-.351-.456c-.519-.522-.807-.578-.906-.578A.239.239,0,0,0,44.365,40.04Zm-11.815,7.4a2.387,2.387,0,0,1-.772-.128A19.493,19.493,0,0,1,27.685,45.4c-2.052-1.3-3.286-2.787-3.667-4.416a5.071,5.071,0,0,1,1.652-4.922,6.1,6.1,0,0,1,4.28-1.98,5.12,5.12,0,0,1,.985.1A7.249,7.249,0,0,1,35.2,37.164a14.051,14.051,0,0,1,1.643,2.783,2.4,2.4,0,0,1-2.7,3.295,2.412,2.412,0,0,1,.68,2.568,2.414,2.414,0,0,1-1.338,1.443A2.384,2.384,0,0,1,32.549,47.444Zm-2.6-12.363a5.126,5.126,0,0,0-3.574,1.688,4.24,4.24,0,0,0-1.384,3.986,6.615,6.615,0,0,0,3.229,3.8A18.8,18.8,0,0,0,32.1,46.368a1.387,1.387,0,0,0,1-.036,1.413,1.413,0,0,0,.783-.845,1.4,1.4,0,0,0-.882-1.778c-2-.671-4.95-2.231-5.269-3.6-.093-.394.113-.838.631-1.356a3.429,3.429,0,0,1,1.021-.743,1.393,1.393,0,0,1,.829-.1c1.335.258,2.688,2.489,3.135,3.529a1.4,1.4,0,0,0,2.582-1.1,12.968,12.968,0,0,0-1.518-2.568,6.3,6.3,0,0,0-3.663-2.612A4.121,4.121,0,0,0,29.95,35.081ZM28.71,39.922c.213.636,2.151,1.952,4.289,2.731a2.4,2.4,0,0,1-.576-.818c-.472-1.1-1.645-2.795-2.407-2.942a.292.292,0,0,0-.058-.006.523.523,0,0,0-.194.048,2.557,2.557,0,0,0-.7.529A1.59,1.59,0,0,0,28.71,39.922ZM16.779,34.66c-3.336,0-5.761-.784-7.209-2.33a5.794,5.794,0,0,1-1.132-5.824c.7-2.566,2.1-4.228,4.163-4.938a6.514,6.514,0,0,1,2.1-.332c3.558,0,7.054,2.562,7.44,2.854a2.367,2.367,0,0,1-2.848,3.783,9.588,9.588,0,0,0-4.58-1.9,1.807,1.807,0,0,0-.579.083c-.487.166-.867.738-1.129,1.7-.126.464-.223,1.074.027,1.346.365.39,1.541.808,3.743.808a21.119,21.119,0,0,0,3.8-.349,2.262,2.262,0,0,1,.466-.047,2.372,2.372,0,0,1,1.9.964,3.312,3.312,0,0,1,.1-.749l0-.022.008-.028c.023-.08.046-.142.065-.192l.033-.083.02-.046a3.313,3.313,0,0,1,3.071-2.1,3.538,3.538,0,0,1,.461.032,2.35,2.35,0,0,1,.315.054h.006l.067.014.013,0a2.366,2.366,0,0,1,.381.139,3.308,3.308,0,0,1,2.01,3.541c-.008.054-.018.111-.028.166a1.318,1.318,0,0,1-.024.133v.038l-.026.064a3.3,3.3,0,0,1-3.982,2.308h-.007l-.066-.019a3.292,3.292,0,0,1-1.981-1.536A2.378,2.378,0,0,1,21.5,34.2,25.833,25.833,0,0,1,16.779,34.66ZM14.7,22.236a5.515,5.515,0,0,0-1.774.279A5.662,5.662,0,0,0,9.4,26.769a5,5,0,0,0,.9,4.878c1.251,1.336,3.431,2.013,6.479,2.013a24.747,24.747,0,0,0,4.527-.441,1.368,1.368,0,0,0-.269-2.71,1.243,1.243,0,0,0-.261.026H20.77a22.2,22.2,0,0,1-4,.37c-1.277,0-3.557-.146-4.474-1.126l0,0c-.168-.182-.678-.735-.257-2.286.534-1.963,1.465-2.28,1.771-2.384a2.8,2.8,0,0,1,.9-.136,10.4,10.4,0,0,1,5.179,2.1,1.367,1.367,0,0,0,1.646-2.184C21.177,24.617,17.931,22.236,14.7,22.236ZM25.587,32.752l.058.016a2.3,2.3,0,0,0,2.811-1.587l0-.012q0-.016.009-.031c.006-.023.01-.042.011-.05l.006-.043c.009-.051.019-.1.026-.151A2.319,2.319,0,0,0,27.1,28.418l-.031-.014a1.322,1.322,0,0,0-.213-.078h0l-.061-.012a1.342,1.342,0,0,0-.188-.033l-.021,0a2.547,2.547,0,0,0-.337-.024,2.307,2.307,0,0,0-2.141,1.466l-.005.012c-.015.037-.026.061-.033.078l-.009.023c-.012.033-.023.062-.033.094l-.007.03a2.27,2.27,0,0,0,.229,1.729A2.3,2.3,0,0,0,25.587,32.752Zm6.388-3.119a2.368,2.368,0,0,1-1.769-3.943c1.927-2.161,3.81-5.456,3.437-6.737-.113-.357-.686-.581-1.147-.707a4.378,4.378,0,0,0-1.118-.173,1.334,1.334,0,0,0-.923.288c-1.063.914-1.2,3.941-1.039,5.358a2.368,2.368,0,0,1-2.08,2.624h-.006a2.531,2.531,0,0,1-.263.013,2.37,2.37,0,0,1-2.356-2.1c-.079-.67-.673-6.634,2.658-9.5a5.974,5.974,0,0,1,4-1.43,9.01,9.01,0,0,1,2.375.344,5.8,5.8,0,0,1,4.44,3.927c.569,1.923.1,4.263-1.387,6.956a24.766,24.766,0,0,1-3.056,4.283l0,0A2.4,2.4,0,0,1,31.975,29.633Zm-.6-12.559a5.3,5.3,0,0,1,1.381.208c1.535.417,1.762,1.133,1.837,1.369l0,.014c.583,1.968-1.928,5.761-3.647,7.69a1.368,1.368,0,0,0,1.022,2.278A1.394,1.394,0,0,0,33,28.179a24.135,24.135,0,0,0,2.924-4.1c1.355-2.45,1.793-4.532,1.3-6.188a5,5,0,0,0-3.745-3.247,8.018,8.018,0,0,0-2.111-.308,5,5,0,0,0-3.349,1.189A7.622,7.622,0,0,0,25.749,20.5a15.893,15.893,0,0,0-.043,3.642,1.37,1.37,0,0,0,1.363,1.211,1.544,1.544,0,0,0,.157-.007,1.368,1.368,0,0,0,1.2-1.515c-.137-1.192-.175-4.892,1.383-6.233A2.294,2.294,0,0,1,31.378,17.074Z" transform="translate(-5721.42 -20657.535)" fill="rgba(0,0,0,0)"/>
  </g>
</svg>
