<svg xmlns="http://www.w3.org/2000/svg" width="70.548" height="70.535" viewBox="0 0 70.548 70.535">
  <g id="Groupe_39939" data-name="Groupe 39939" transform="translate(-792.726 -1072.211)" style="isolation: isolate">
    <g id="Tracé_34942" data-name="Tracé 34942" style="mix-blend-mode: overlay;isolation: isolate">
      <path id="Tracé_34942-2" data-name="Tracé 34942" d="M34.771,69.535a34.363,34.363,0,0,1-21.6-7.55c-.026-.017-.052-.038-.078-.058l.623-.9-.687.843c-.235-.188-.458-.374-.681-.562-.2-.168-.394-.339-.591-.51l-.437-.385c-.374-.339-.736-.687-1.092-1.04l-.055-.055A34.37,34.37,0,0,1,.337,29.961c.032-.235.07-.475.107-.713.032-.194.064-.385.1-.577a34.767,34.767,0,0,1,69,6.055,1.087,1.087,0,0,1-1.049,1.086l-1.086.038H66.279a1.087,1.087,0,0,1-1.086-1.086,30.194,30.194,0,0,0-5.485-17.384H49.029a2.173,2.173,0,0,0-2.109,1.646l-.771,3.086a2.166,2.166,0,0,1-2.106,1.646,2.13,2.13,0,0,1-.524-.064,2.171,2.171,0,0,1-1.582-2.637l.771-3.086a6.5,6.5,0,0,1,6.322-4.934h6.994A30.424,30.424,0,0,0,5.6,26.076H18.338a6.512,6.512,0,0,1,6.325,4.937L26,36.384a2.173,2.173,0,1,1-4.216,1.055l-1.341-5.372a2.17,2.17,0,0,0-2.109-1.646H4.662q-.052.374-.1.748l-.055.449c-.049.475-.081.945-.11,1.414-.026.449-.038.9-.043,1.356l-.009.513c0,.423.014.846.035,1.266l.017.365c.026.446.058.889.1,1.333,0,.006.014.139.017.142a30.262,30.262,0,0,0,1.194,5.786l-1.014.4,1.037-.325a30.285,30.285,0,0,0,5.36,9.978l.333.409c.209.249.423.493.637.736s.423.464.643.692c0,0,.3.313.371.391L15.258,45.2a2.175,2.175,0,0,1,2.13-1.744h4.279a2.173,2.173,0,0,1,0,4.346h-2.5L16.863,59.337a30.1,30.1,0,0,0,17.862,5.853.68.68,0,0,1,.075,0,.562.562,0,0,1,.1.006,2.172,2.172,0,0,1,2.083,2.167,2.2,2.2,0,0,1-2.211,2.176Z" transform="translate(793.235 1072.711)"/>
      <path id="Tracé_34942_-_Contour" data-name="Tracé 34942 - Contour" d="M34.772,70.035h0A34.853,34.853,0,0,1,13.11,62.571l0,0-.286-.23-.031-.024-.374-.291.006-.008c-.122-.1-.251-.208-.392-.327-.2-.171-.4-.342-.6-.514l-.44-.387-.006-.005c-.348-.316-.711-.661-1.108-1.056l-.056-.056A34.869,34.869,0,0,1-.158,29.891c.032-.238.071-.487.109-.722s.067-.4.1-.588a35.284,35.284,0,0,1,67.2-7.555,34.939,34.939,0,0,1,2.79,13.7,1.581,1.581,0,0,1-1.531,1.587l-1.1.038H66.279a1.588,1.588,0,0,1-1.586-1.586,29.726,29.726,0,0,0-5.246-16.884H49.029A1.674,1.674,0,0,0,47.4,19.149l-.77,3.085a2.664,2.664,0,0,1-2.591,2.025,2.631,2.631,0,0,1-.648-.079,2.671,2.671,0,0,1-1.944-3.244l.77-3.084a7,7,0,0,1,6.807-5.313h5.732A29.926,29.926,0,0,0,6.28,25.576H18.338a7.01,7.01,0,0,1,6.81,5.316l1.342,5.372a2.673,2.673,0,1,1-5.186,1.3l-1.341-5.371a1.669,1.669,0,0,0-1.624-1.267H5.1q-.019.153-.037.305l-.055.448c-.046.442-.076.875-.108,1.388-.022.385-.036.808-.043,1.331l-.009.509c0,.413.014.83.034,1.24l.017.362c.029.493.06.9.1,1.271l0,0,.019.176a29.76,29.76,0,0,0,1.148,5.606l.049.155a29.8,29.8,0,0,0,5.272,9.814l.33.4c.2.243.418.487.626.722.116.129.229.252.34.371l1.984-9.921a2.675,2.675,0,0,1,2.62-2.146h4.279a2.673,2.673,0,0,1,0,5.346H19.579L17.416,59.12A29.637,29.637,0,0,0,34.7,64.689c.039,0,.073,0,.1,0a1.122,1.122,0,0,1,.146.007,2.662,2.662,0,0,1,2.535,2.666A2.7,2.7,0,0,1,34.772,70.035ZM13.778,61.823A33.862,33.862,0,0,0,34.77,69.035a1.7,1.7,0,0,0,1.712-1.676,1.665,1.665,0,0,0-1.6-1.668h-.035l-.022,0h-.046l-.028,0h-.024A30.636,30.636,0,0,1,16.568,59.74l-.258-.189,2.449-12.246h2.907a1.673,1.673,0,0,0,0-3.346H17.387A1.673,1.673,0,0,0,15.748,45.3L13.388,57.107l-.663-.688c-.076-.079-.374-.395-.374-.395-.209-.218-.424-.448-.651-.7l0,0c-.213-.241-.433-.491-.646-.745l0,0-.333-.409a30.809,30.809,0,0,1-5.3-9.669l-.565.177-.332-.943L5.1,43.5a30.779,30.779,0,0,1-1.075-5.4.986.986,0,0,1-.024-.2c-.041-.392-.074-.816-.1-1.333v-.005l-.017-.365c-.02-.425-.032-.858-.035-1.287V34.9l.009-.519c.007-.536.021-.975.044-1.376.033-.53.064-.976.112-1.436v-.009l.055-.449c.029-.249.062-.5.1-.756l.06-.431h14.11a2.667,2.667,0,0,1,2.594,2.025l1.341,5.371a1.673,1.673,0,1,0,3.246-.811l-1.342-5.373a6.011,6.011,0,0,0-5.84-4.558H4.931l.191-.643A30.965,30.965,0,0,1,34.771,3.846a30.881,30.881,0,0,1,21.6,8.835l.876.857H49.029a6,6,0,0,0-5.837,4.555l-.771,3.086a1.671,1.671,0,0,0,1.219,2.03,1.633,1.633,0,0,0,.4.049,1.666,1.666,0,0,0,1.621-1.266l.771-3.087a2.673,2.673,0,0,1,2.594-2.025h10.94l.149.213a30.725,30.725,0,0,1,5.575,17.67.587.587,0,0,0,.586.587h1.115l1.078-.037a.585.585,0,0,0,.566-.587,34.267,34.267,0,0,0-68-5.969c-.033.18-.063.358-.1.571s-.074.469-.105.7a33.878,33.878,0,0,0,9.7,28.94l.055.055c.384.381.735.716,1.072,1.021l.435.383c.193.167.389.337.585.5l.285.239.37-.455.8.6Z" transform="translate(793.235 1072.711)" fill="rgba(0,0,0,0)"/>
    </g>
    <path id="Tracé_34943" data-name="Tracé 34943" d="M48.832,51.038a2.149,2.149,0,0,1-1.538-.64l-9.5-9.538a17.423,17.423,0,1,1,3.074-3.074l9.506,9.541a2.177,2.177,0,0,1-1.538,3.711ZM27.143,14.1A13.038,13.038,0,1,0,40.181,27.136,13.054,13.054,0,0,0,27.143,14.1Z" transform="translate(811.77 1091.207)"/>
  </g>
</svg>
