<svg xmlns="http://www.w3.org/2000/svg" width="20" height="20" viewBox="0 0 25 25" transform="rotate(45) translate(5 5)">
    <path d="M8.505,0a8.505,8.505,0,1,0,8.505,8.505A8.481,8.481,0,0,0,8.505,0ZM9.743,8.66l2.9,2.9a.374.374,0,0,1,0,.541l-.541.541a.418.418,0,0,1-.271.116.351.351,0,0,1-.271-.116l-2.9-2.9a.187.187,0,0,0-.271,0l-2.9,2.9a.418.418,0,0,1-.271.116.351.351,0,0,1-.271-.116L4.407,12.1a.374.374,0,0,1,0-.541l2.9-2.9a.187.187,0,0,0,0-.271l-2.9-2.9a.374.374,0,0,1,0-.541l.541-.541a.374.374,0,0,1,.541,0l2.9,2.9a.187.187,0,0,0,.271,0l2.9-2.9a.418.418,0,0,1,.271-.116.351.351,0,0,1,.271.116l.541.541a.374.374,0,0,1,0,.541l-2.9,2.9C9.665,8.428,9.665,8.583,9.743,8.66Z"
          fill="#2FB67D"/>
</svg>
