<svg xmlns="http://www.w3.org/2000/svg" width="16.224" height="16.224"><path data-name="Tracé 230" d="M8.112 8.733a.843.843 0 00-.421 1.574v.941h.842v-.938a.843.843 0 00-.421-1.574z"/><path data-name="Tracé 231" d="M8.113 4.643a1.287 1.287 0 00-1.286 1.286v1.365h2.572V5.929a1.287 1.287 0 00-1.286-1.286z"/><path data-name="Tracé 232" d="M8.112-.001a8.112 8.112 0 108.112 8.112A8.112 8.112 0 008.112-.001zM10.6 12.283H5.62a.953.953 0 01-.953-.953V8.251a.953.953 0 01.757-.933V5.929a2.688 2.688 0 115.377 0v1.39a.954.954 0 01.757.933v3.077a.953.953 0 01-.958.954z"/></svg>
