<svg xmlns="http://www.w3.org/2000/svg" width="16.224" height="16.224" viewBox="0 0 16.224 16.224">
  <g id="padlock" transform="translate(0 -0.001)">
    <g id="Groupe_737" data-name="Groupe 737" transform="translate(0 0.001)">
      <g id="Groupe_736" data-name="Groupe 736" transform="translate(0 0)">
        <path id="Tracé_230" data-name="Tracé 230" d="M135.243,161.485a.843.843,0,0,0-.421,1.574V164h.842v-.938a.843.843,0,0,0-.421-1.574Z" transform="translate(-127.131 -152.752)"/>
        <path id="Tracé_231" data-name="Tracé 231" d="M127.514,85.849a1.287,1.287,0,0,0-1.286,1.286V88.5H128.8V87.135A1.287,1.287,0,0,0,127.514,85.849Z" transform="translate(-119.401 -81.206)"/>
        <path id="Tracé_232" data-name="Tracé 232" d="M8.112,0a8.112,8.112,0,1,0,8.112,8.112A8.112,8.112,0,0,0,8.112,0ZM10.6,12.284H5.62a.953.953,0,0,1-.953-.953V8.252a.953.953,0,0,1,.757-.933V5.93a2.688,2.688,0,1,1,5.377,0v1.39a.954.954,0,0,1,.757.933V11.33h0A.953.953,0,0,1,10.6,12.284Z" transform="translate(0 -0.001)"/>
      </g>
    </g>
  </g>
</svg>