<svg xmlns="http://www.w3.org/2000/svg" width="16.375" height="16.375" viewBox="0 0 16.375 16.375">
    <path d="M11.541 7.763H4.834a.211.211 0 0 0-.224.224v3.576a.211.211 0 0 0 .224.224h6.708a.211.211 0 0 0 .224-.224V7.987a.211.211 0 0 0-.225-.224zM7.07 6.949h2.236a.211.211 0 0 0 .224-.224v-.671a1.342 1.342 0 0 0-2.683 0v.671a.211.211 0 0 0 .223.224z"/>
    <path d="M8.188 0a8.188 8.188 0 1 0 8.188 8.188A8.164 8.164 0 0 0 8.188 0zm4.466 12.653a.352.352 0 0 1-.372.372H4.094a.352.352 0 0 1-.372-.372V7.071a.352.352 0 0 1 .372-.371H5.4a.176.176 0 0 0 .186-.186v-.559a2.605 2.605 0 0 1 5.21 0v.558a.176.176 0 0 0 .186.186h1.3a.352.352 0 0 1 .372.372z"/>
</svg>
