<svg xmlns="http://www.w3.org/2000/svg" width="17.011" height="17.012" viewBox="0 0 17.011 17.012">
    <defs>
        <style>.a{fill:#e22020;}</style>
    </defs>
    <path class="a"
          d="M16.479,13a3.479,3.479,0,1,0,3.479,3.479A3.465,3.465,0,0,0,16.479,13Zm1.933,3.866a.365.365,0,0,1-.387.387H14.933a.365.365,0,0,1-.387-.387v-.773a.365.365,0,0,1,.387-.387h3.093a.365.365,0,0,1,.387.387Z"
          transform="translate(-7.974 -7.974)"/>
    <path class="a"
          d="M8.505,0a8.505,8.505,0,1,0,8.505,8.505A8.481,8.481,0,0,0,8.505,0Zm0,13.531a5.026,5.026,0,1,1,5.026-5.026A5.016,5.016,0,0,1,8.505,13.531Z"/>
</svg>
