<svg xmlns="http://www.w3.org/2000/svg" width="17.011" height="17.012" viewBox="0 0 17.011 17.012">
    <defs>
        <style>.a{fill:#2FB67D}</style>
    </defs>
    <g>
        <path class="a"
              d="M8.505 0a8.505 8.505 0 1 0 8.505 8.505A8.481 8.481 0 0 0 8.505 0zm4.639 8.892a.365.365 0 0 1-.387.387h-.7a.257.257 0 0 0-.193.155 3.67 3.67 0 0 1-.348.812.182.182 0 0 0 .039.232l.5.5a.374.374 0 0 1 0 .541l-.541.541a.374.374 0 0 1-.541 0l-.5-.5a.182.182 0 0 0-.232-.039 2.578 2.578 0 0 1-.812.348c-.077.039-.155.077-.155.193v.7a.365.365 0 0 1-.387.387h-.768a.365.365 0 0 1-.387-.387v-.7a.257.257 0 0 0-.155-.193 3.67 3.67 0 0 1-.812-.348.182.182 0 0 0-.232.039l-.5.5a.374.374 0 0 1-.541 0l-.541-.541a.374.374 0 0 1 0-.541l.5-.5a.182.182 0 0 0 .039-.232 2.578 2.578 0 0 1-.348-.812c-.039-.077-.077-.155-.193-.155h-.7a.365.365 0 0 1-.387-.387v-.773a.365.365 0 0 1 .387-.387h.7a.257.257 0 0 0 .193-.155 3.67 3.67 0 0 1 .348-.812.182.182 0 0 0-.039-.232l-.5-.5a.374.374 0 0 1 0-.541l.541-.541a.374.374 0 0 1 .541 0l.5.5a.182.182 0 0 0 .232.039 2.578 2.578 0 0 1 .812-.348c.077-.039.155-.077.155-.193v-.7a.365.365 0 0 1 .387-.387h.773a.365.365 0 0 1 .387.387v.7a.257.257 0 0 0 .155.193 3.67 3.67 0 0 1 .812.348.182.182 0 0 0 .232-.039l.5-.5a.374.374 0 0 1 .541 0l.541.541a.374.374 0 0 1 0 .541l-.5.5a.182.182 0 0 0-.039.232 2.578 2.578 0 0 1 .348.812c.039.077.077.155.193.155h.7a.365.365 0 0 1 .387.387v.773z"/>
        <ellipse class="a" cx="1.933" cy="1.933" rx="1.933" ry="1.933" transform="translate(6.572 6.572)"/>
    </g>
</svg>
