<svg xmlns="http://www.w3.org/2000/svg" width="9.717" height="9.717" viewBox="0 0 9.717 9.717">
    <rect width="9.717" height="9.717" rx="4.858" fill="#ffba00"/>
    <path d="M7.398 4.593a.364.364 0 0 0-.2-.621l-1.23-.179a.161.161 0 0 1-.121-.088l-.552-1.114a.364.364 0 0 0-.653 0l-.55 1.114a.161.161 0 0 1-.121.088l-1.23.179a.364.364 0 0 0-.2.621l.889.867a.161.161 0 0 1 .046.142l-.21 1.225a.357.357 0 0 0 .079.3.368.368 0 0 0 .449.089l1.1-.578a.165.165 0 0 1 .15 0l1.1.578a.36.36 0 0 0 .169.042.365.365 0 0 0 .279-.131.356.356 0 0 0 .079-.3l-.21-1.225a.161.161 0 0 1 .046-.142z"
          fill="#fff"/>
</svg>
