<svg xmlns="http://www.w3.org/2000/svg" width="83" height="85" viewBox="0 0 83 85">
<g transform="translate(3.056 8.437)">
<path d="M42.837,8.918a1.476,1.476,0,1,0-1.548,2.514A35.224,35.224,0,0,1,58.171,41.615a35.467,35.467,0,0,1-1.188,9.08A1.478,1.478,0,0,0,58.032,52.5a1.517,1.517,0,0,0,.378.049,1.475,1.475,0,0,0,1.426-1.1,38.348,38.348,0,0,0-17-42.533Z"
transform="translate(15.524 -4.297)"/>
<path d="M51.3,56.2a35.228,35.228,0,0,1-13.536,2.683A35.489,35.489,0,0,1,11.6,47.323a1.476,1.476,0,0,0-2.182,1.99A38.456,38.456,0,0,0,37.766,61.835a38.131,38.131,0,0,0,14.665-2.909A1.475,1.475,0,1,0,51.3,56.2Z"
transform="translate(0.506 13.859)"/>
<path d="M32.405,8.625a1.476,1.476,0,0,0-.7-2.868A38.209,38.209,0,0,0,2.574,40.3a1.474,1.474,0,0,0,1.368,1.575c.035,0,.071,0,.1,0A1.476,1.476,0,0,0,5.519,40.5,35.267,35.267,0,0,1,32.405,8.625Z"
transform="translate(-2.57 -5.716)"/>
</g>
<ellipse cx="8.856" cy="8.856" rx="8.856" ry="8.856" transform="translate(32.472)" fill="#2fb67d"/>
<ellipse cx="8.856" cy="8.856" rx="8.856" ry="8.856" transform="translate(0 54.611)" fill="#2fb67d"/>
<ellipse cx="8.856" cy="8.856" rx="8.856" ry="8.856" transform="translate(64.943 54.611)" fill="#2fb67d"/>
</svg>