<svg xmlns="http://www.w3.org/2000/svg" width="83" height="83" viewBox="0 0 83 83">
<g transform="translate(28.125 6.555)" fill="#2fb67d">
<path d="M12.974 26.191a15.52 15.52 0 0 0 12.974-6.931A15.765 15.765 0 0 0 0 19.26a15.488 15.488 0 0 0 12.974 6.931z"/>
<ellipse cx="4.876" cy="4.876" rx="4.876" ry="4.876" transform="translate(8.098)"/>
</g>
<g transform="translate(4.109 54.719)" fill="#2fb67d">
<path d="M12.975 26.191a15.52 15.52 0 0 0 12.974-6.931A15.767 15.767 0 0 0 0 19.26a15.162 15.162 0 0 0 12.975 6.931z"/>
<ellipse cx="4.876" cy="4.876" rx="4.876" ry="4.876" transform="translate(8.099)"/>
</g>
<g transform="translate(52.139 54.719)" fill="#2fb67d">
<path d="M12.975 26.191a15.52 15.52 0 0 0 12.974-6.931A15.767 15.767 0 0 0 0 19.26a15.508 15.508 0 0 0 12.975 6.931z"/>
<ellipse cx="4.876" cy="4.876" rx="4.876" ry="4.876" transform="translate(8.099)"/>
</g>
<path
d="M65.115 48.166a17.514 17.514 0 0 0-11.564 4.5l-11.175-6.421V34.049a17.178 17.178 0 1 0-2.565-.015v12.2l-11.172 6.417a17.046 17.046 0 1 0-11.554 29.545 17 17 0 0 0 13.364-27.614l10.785-6.165 10.785 6.165a16.924 16.924 0 1 0 13.1-6.419zm-48.03 31.468a14.518 14.518 0 1 1 14.519-14.518 14.588 14.588 0 0 1-14.519 14.517zm9.5-62.548a14.519 14.519 0 1 1 14.514 14.519A14.679 14.679 0 0 1 26.58 17.086zM65.12 79.634a14.518 14.518 0 1 1 14.514-14.518 14.5 14.5 0 0 1-14.519 14.517z"/>
</svg>